<?xml version="1.0" encoding="UTF-8"?>
<svg fill="none" viewBox="0 0 21 18" xmlns="http://www.w3.org/2000/svg">
<path d="m19.376 9.2708c2.1648-2.1244 2.1648-5.574 0-7.6775-2.1649-2.1245-5.68-2.1245-7.8449 0l-1.0503 1.0517-1.0502-1.0307c-2.1648-2.1455-5.68-2.1455-7.8234-0.02103-1.0503 1.0307-1.6076 2.3979-1.6076 3.8492 0 1.4514 0.57872 2.8186 1.6076 3.8493l8.8736 8.7082 8.8952-8.7292zm-18.005-3.8282c0-1.0938 0.42868-2.1034 1.2217-2.8606 0.81449-0.7993 1.8648-1.199 2.915-1.199s2.1005 0.39965 2.915 1.199l2.0576 1.9982 2.0577-2.0193c1.6076-1.5776 4.244-1.5776 5.8301 0 0.7716 0.75723 1.2217 1.7669 1.2217 2.8606s-0.4287 2.1034-1.2217 2.8606l-7.8878 7.7616-7.8877-7.7406c-0.77163-0.77826-1.2217-1.7879-1.2217-2.8606z" fill="#000"/>
</svg>
